<svg xmlns="http://www.w3.org/2000/svg" height="20" viewBox="0 -960 960 960" width="20"><path d="M480-90q-67.539 0-127.364-25.638-59.826-25.639-104.593-70.405-44.766-44.767-70.405-104.593Q152-350.461 152-418q0-11.839 8.52-20.419Q169.04-447 180.789-447q11.749 0 20.48 8.581Q210-429.839 210-418q0 111 79.5 190.5T480-148q111 0 190.5-79.5T750-418q0-111-79.5-190.5T479.61-688h-8.841l34.923 34.923q6.846 6.846 9.116 17.769 2.269 10.923-6.637 20.539-8.094 10.615-19.748 10.731-11.654.115-21.269-9.5l-76.847-74.616q-12.692-12.329-13.192-28.934-.5-16.604 12.192-29.297L463.692-820q8.846-8.846 19.385-9.616 10.538-.769 20.632 8.846 9.906 9.616 9.522 20.654-.385 11.039-10 20.654L469.769-746H480q67.539 0 127.364 25.638 59.826 25.639 104.593 70.405 44.766 44.767 70.405 104.593Q808-485.539 808-418t-25.638 127.364q-25.639 59.826-70.405 104.593-44.767 44.766-104.593 70.405Q547.539-90 480-90Z"/></svg>