<svg width="129" height="85" viewBox="0 0 129 85" fill="none" xmlns="http://www.w3.org/2000/svg">
<path d="M22.5898 29.4336L21.0859 25.4805H8.28125L6.77734 29.5195C6.1901 31.0951 5.6888 32.1621 5.27344 32.7207C4.85807 33.265 4.17773 33.5371 3.23242 33.5371C2.43034 33.5371 1.72135 33.2435 1.10547 32.6562C0.489583 32.069 0.181641 31.403 0.181641 30.6582C0.181641 30.2285 0.253255 29.7845 0.396484 29.3262C0.539714 28.8678 0.776042 28.2305 1.10547 27.4141L9.16211 6.96094C9.39128 6.3737 9.66341 5.67188 9.97852 4.85547C10.3079 4.02474 10.6517 3.33724 11.0098 2.79297C11.3822 2.2487 11.862 1.81185 12.4492 1.48242C13.0508 1.13867 13.7884 0.966797 14.6621 0.966797C15.5501 0.966797 16.2878 1.13867 16.875 1.48242C17.4766 1.81185 17.9564 2.24154 18.3145 2.77148C18.6868 3.30143 18.9948 3.87435 19.2383 4.49023C19.4961 5.0918 19.8184 5.90104 20.2051 6.91797L28.4336 27.2422C29.0781 28.7891 29.4004 29.9134 29.4004 30.6152C29.4004 31.3457 29.0924 32.0189 28.4766 32.6348C27.875 33.2363 27.1445 33.5371 26.2852 33.5371C25.7839 33.5371 25.3542 33.444 24.9961 33.2578C24.638 33.0859 24.3372 32.8496 24.0938 32.5488C23.8503 32.2337 23.5853 31.7611 23.2988 31.1309C23.0267 30.4863 22.7904 29.9206 22.5898 29.4336ZM9.95703 20.6895H19.3672L14.6191 7.69141L9.95703 20.6895ZM42.6777 19.5293H40.4434V29.6484C40.4434 30.9805 40.1497 31.9616 39.5625 32.5918C38.9753 33.222 38.209 33.5371 37.2637 33.5371C36.2467 33.5371 35.459 33.2077 34.9004 32.5488C34.3418 31.89 34.0625 30.9232 34.0625 29.6484V5.41406C34.0625 4.03906 34.3704 3.04362 34.9863 2.42773C35.6022 1.81185 36.5977 1.50391 37.9727 1.50391H48.3496C49.7819 1.50391 51.0065 1.56836 52.0234 1.69727C53.0404 1.81185 53.957 2.05534 54.7734 2.42773C55.7617 2.8431 56.6354 3.4375 57.3945 4.21094C58.1536 4.98438 58.7266 5.88672 59.1133 6.91797C59.5143 7.9349 59.7148 9.01628 59.7148 10.1621C59.7148 12.5111 59.0488 14.3874 57.7168 15.791C56.3991 17.1947 54.3939 18.1901 51.7012 18.7773C52.8327 19.3789 53.9141 20.2669 54.9453 21.4414C55.9766 22.6159 56.8932 23.8691 57.6953 25.2012C58.5117 26.5189 59.1419 27.7148 59.5859 28.7891C60.0443 29.849 60.2734 30.5794 60.2734 30.9805C60.2734 31.3958 60.1374 31.8112 59.8652 32.2266C59.6074 32.6276 59.2493 32.9427 58.791 33.1719C58.3327 33.4154 57.8027 33.5371 57.2012 33.5371C56.485 33.5371 55.8835 33.3652 55.3965 33.0215C54.9095 32.6921 54.487 32.2695 54.1289 31.7539C53.7852 31.2383 53.3125 30.4792 52.7109 29.4766L50.1543 25.2227C49.2376 23.6615 48.4141 22.4727 47.6836 21.6562C46.9674 20.8398 46.237 20.2812 45.4922 19.9805C44.7474 19.6797 43.8092 19.5293 42.6777 19.5293ZM46.3301 6.29492H40.4434V14.9531H46.1582C47.6908 14.9531 48.9798 14.8242 50.0254 14.5664C51.071 14.2943 51.8659 13.8431 52.4102 13.2129C52.9688 12.5684 53.248 11.6875 53.248 10.5703C53.248 9.69661 53.026 8.93034 52.582 8.27148C52.138 7.59831 51.5221 7.09701 50.7344 6.76758C49.9896 6.45247 48.5215 6.29492 46.3301 6.29492ZM74.0879 4.79102L86.3555 23.3535V4.61914C86.3555 3.40169 86.6133 2.49219 87.1289 1.89062C87.6589 1.27474 88.3678 0.966797 89.2559 0.966797C90.1725 0.966797 90.8958 1.27474 91.4258 1.89062C91.9557 2.49219 92.2207 3.40169 92.2207 4.61914V29.3906C92.2207 32.1549 91.0749 33.5371 88.7832 33.5371C88.2103 33.5371 87.6947 33.4512 87.2363 33.2793C86.778 33.1217 86.3483 32.8639 85.9473 32.5059C85.5462 32.1478 85.1738 31.7324 84.8301 31.2598C84.4863 30.7728 84.1426 30.2786 83.7988 29.7773L71.832 11.4297V29.8848C71.832 31.0879 71.5527 31.9974 70.9941 32.6133C70.4355 33.2292 69.7194 33.5371 68.8457 33.5371C67.9434 33.5371 67.2201 33.2292 66.6758 32.6133C66.1315 31.9831 65.8594 31.0736 65.8594 29.8848V5.58594C65.8594 4.55469 65.974 3.74544 66.2031 3.1582C66.4753 2.51367 66.9264 1.99089 67.5566 1.58984C68.1868 1.17448 68.8672 0.966797 69.5977 0.966797C70.1706 0.966797 70.6576 1.0599 71.0586 1.24609C71.474 1.43229 71.832 1.68294 72.1328 1.99805C72.4479 2.31315 72.763 2.72135 73.0781 3.22266C73.4076 3.72396 73.7441 4.24674 74.0879 4.79102ZM113.061 0.966797C116.326 0.966797 119.126 1.63281 121.461 2.96484C123.81 4.28255 125.586 6.16602 126.789 8.61523C127.992 11.0501 128.594 13.9147 128.594 17.209C128.594 19.6439 128.264 21.8568 127.605 23.8477C126.947 25.8385 125.958 27.5645 124.641 29.0254C123.323 30.4863 121.704 31.6035 119.785 32.377C117.866 33.1504 115.667 33.5371 113.189 33.5371C110.726 33.5371 108.52 33.1432 106.572 32.3555C104.624 31.5534 102.999 30.429 101.695 28.9824C100.392 27.5358 99.4036 25.7956 98.7305 23.7617C98.0716 21.7279 97.7422 19.5293 97.7422 17.166C97.7422 14.7454 98.0859 12.5254 98.7734 10.5059C99.4753 8.48633 100.485 6.76758 101.803 5.34961C103.12 3.93164 104.725 2.85026 106.615 2.10547C108.506 1.34635 110.654 0.966797 113.061 0.966797ZM122.127 17.166C122.127 14.86 121.755 12.862 121.01 11.1719C120.265 9.48177 119.198 8.20703 117.809 7.34766C116.434 6.47396 114.851 6.03711 113.061 6.03711C111.786 6.03711 110.604 6.2806 109.516 6.76758C108.441 7.24023 107.51 7.9349 106.723 8.85156C105.949 9.76823 105.333 10.9427 104.875 12.375C104.431 13.793 104.209 15.39 104.209 17.166C104.209 18.9564 104.431 20.5749 104.875 22.0215C105.333 23.4681 105.971 24.6712 106.787 25.6309C107.618 26.5762 108.563 27.2852 109.623 27.7578C110.697 28.2305 111.872 28.4668 113.146 28.4668C114.779 28.4668 116.276 28.0586 117.637 27.2422C119.012 26.4258 120.1 25.1654 120.902 23.4609C121.719 21.7565 122.127 19.6582 122.127 17.166ZM5.91797 84.5371C5.02995 84.5371 4.26367 84.2507 3.61914 83.6777C2.97461 83.1048 2.65234 82.3027 2.65234 81.2715C2.65234 80.3978 2.96029 79.6458 3.57617 79.0156C4.19206 78.3854 4.95117 78.0703 5.85352 78.0703C6.75586 78.0703 7.52214 78.3854 8.15234 79.0156C8.79688 79.6315 9.11914 80.3835 9.11914 81.2715C9.11914 82.2884 8.79688 83.0905 8.15234 83.6777C7.52214 84.2507 6.77734 84.5371 5.91797 84.5371ZM43.0645 74.0527C43.0645 75.0553 42.8138 76.1439 42.3125 77.3184C41.8255 78.4785 41.0521 79.6243 39.9922 80.7559C38.9323 81.873 37.5788 82.7826 35.9316 83.4844C34.2845 84.1862 32.3652 84.5371 30.1738 84.5371C28.5124 84.5371 27.0013 84.3796 25.6406 84.0645C24.2799 83.7493 23.041 83.2624 21.9238 82.6035C20.821 81.9303 19.804 81.0495 18.873 79.9609C18.0423 78.9727 17.3333 77.8698 16.7461 76.6523C16.1589 75.4206 15.7148 74.11 15.4141 72.7207C15.1276 71.3314 14.9844 69.8561 14.9844 68.2949C14.9844 65.7598 15.3496 63.4896 16.0801 61.4844C16.8249 59.4792 17.8848 57.7676 19.2598 56.3496C20.6348 54.9173 22.2461 53.8288 24.0938 53.084C25.9414 52.3392 27.9108 51.9668 30.002 51.9668C32.5514 51.9668 34.8216 52.4753 36.8125 53.4922C38.8034 54.5091 40.3288 55.7695 41.3887 57.2734C42.4486 58.763 42.9785 60.1738 42.9785 61.5059C42.9785 62.2363 42.7207 62.8809 42.2051 63.4395C41.6895 63.998 41.0664 64.2773 40.3359 64.2773C39.5195 64.2773 38.9036 64.084 38.4883 63.6973C38.0872 63.3105 37.6361 62.6445 37.1348 61.6992C36.304 60.138 35.3229 58.9707 34.1914 58.1973C33.0742 57.4238 31.6921 57.0371 30.0449 57.0371C27.4238 57.0371 25.3327 58.0326 23.7715 60.0234C22.2246 62.0143 21.4512 64.8431 21.4512 68.5098C21.4512 70.959 21.7949 73 22.4824 74.6328C23.1699 76.2513 24.1439 77.4616 25.4043 78.2637C26.6647 79.0658 28.14 79.4668 29.8301 79.4668C31.6634 79.4668 33.2103 79.0156 34.4707 78.1133C35.7454 77.1966 36.7051 75.8574 37.3496 74.0957C37.6217 73.265 37.9583 72.5918 38.3594 72.0762C38.7604 71.5462 39.4049 71.2812 40.293 71.2812C41.0521 71.2812 41.7038 71.5462 42.248 72.0762C42.7923 72.6061 43.0645 73.265 43.0645 74.0527ZM55.0527 55.834V78.7578H67.9863C69.0176 78.7578 69.8053 79.0085 70.3496 79.5098C70.9082 80.0111 71.1875 80.6413 71.1875 81.4004C71.1875 82.1738 70.9154 82.804 70.3711 83.291C69.8268 83.7637 69.0319 84 67.9863 84H52.582C51.1927 84 50.1901 83.6921 49.5742 83.0762C48.9727 82.4603 48.6719 81.4648 48.6719 80.0898V55.834C48.6719 54.5449 48.9583 53.5781 49.5312 52.9336C50.1185 52.2891 50.8848 51.9668 51.8301 51.9668C52.7897 51.9668 53.5632 52.2891 54.1504 52.9336C54.752 53.5638 55.0527 54.5306 55.0527 55.834Z" fill="black" fill-opacity="0.5"/>
</svg>
